<svg xmlns="http://www.w3.org/2000/svg" viewBox="0 0 320 200" width="320" height="200">
  <defs>
    <radialGradient id="g" cx="72%" cy="22%" r="85%">
      <stop offset="0" stop-color="#9B8FC4" stop-opacity=".55"/>
      <stop offset=".55" stop-color="#9B8FC4" stop-opacity=".14"/>
      <stop offset="1" stop-color="#0A0E11" stop-opacity="0"/>
    </radialGradient>
    <pattern id="p" width="16" height="16" patternUnits="userSpaceOnUse">
      <path d="M16 0H0V16" fill="none" stroke="#fff" stroke-opacity=".05" stroke-width="1"/>
    </pattern>
  </defs>
  <rect width="320" height="200" fill="#0C1114"/>
  <rect width="320" height="200" fill="url(#g)"/>
  <rect width="320" height="200" fill="url(#p)"/>
  <circle cx="134" cy="28" r="3.6" fill="#fff" fill-opacity=".85"/><circle cx="160" cy="28" r="3.6" fill="#fff" fill-opacity=".85"/><circle cx="186" cy="28" r="3.6" fill="#fff" fill-opacity=".85"/><circle cx="121" cy="47" r="3.6" fill="#fff" fill-opacity=".85"/><circle cx="147" cy="47" r="3.6" fill="#fff" fill-opacity=".85"/><circle cx="173" cy="47" r="3.6" fill="#fff" fill-opacity=".85"/><circle cx="199" cy="47" r="3.6" fill="#fff" fill-opacity=".85"/><circle cx="108" cy="66" r="3.6" fill="#fff" fill-opacity=".85"/><circle cx="134" cy="66" r="3.6" fill="#fff" fill-opacity=".85"/><circle cx="160" cy="66" r="3.6" fill="#fff" fill-opacity=".85"/><circle cx="186" cy="66" r="3.6" fill="#fff" fill-opacity=".85"/><circle cx="212" cy="66" r="3.6" fill="#fff" fill-opacity=".85"/><circle cx="95" cy="85" r="3.6" fill="#fff" fill-opacity=".85"/><circle cx="121" cy="85" r="3.6" fill="#fff" fill-opacity=".85"/><circle cx="147" cy="85" r="3.6" fill="#fff" fill-opacity=".85"/><circle cx="173" cy="85" r="3.6" fill="#fff" fill-opacity=".85"/><circle cx="199" cy="85" r="3.6" fill="#fff" fill-opacity=".85"/><circle cx="225" cy="85" r="3.6" fill="#fff" fill-opacity=".85"/><circle cx="82" cy="104" r="3.6" fill="#fff" fill-opacity=".85"/><circle cx="108" cy="104" r="3.6" fill="#fff" fill-opacity=".85"/><circle cx="134" cy="104" r="3.6" fill="#fff" fill-opacity=".85"/><circle cx="160" cy="104" r="3.6" fill="#fff" fill-opacity=".85"/><circle cx="186" cy="104" r="3.6" fill="#fff" fill-opacity=".85"/><circle cx="212" cy="104" r="3.6" fill="#fff" fill-opacity=".85"/><circle cx="238" cy="104" r="3.6" fill="#fff" fill-opacity=".85"/><circle cx="69" cy="123" r="3.6" fill="#fff" fill-opacity=".85"/><circle cx="95" cy="123" r="3.6" fill="#fff" fill-opacity=".85"/><circle cx="121" cy="123" r="3.6" fill="#fff" fill-opacity=".85"/><circle cx="147" cy="123" r="3.6" fill="#fff" fill-opacity=".85"/><circle cx="173" cy="123" r="3.6" fill="#fff" fill-opacity=".85"/><circle cx="199" cy="123" r="3.6" fill="#fff" fill-opacity=".85"/><circle cx="225" cy="123" r="3.6" fill="#fff" fill-opacity=".85"/><circle cx="251" cy="123" r="3.6" fill="#fff" fill-opacity=".85"/><circle cx="56" cy="142" r="3.6" fill="#fff" fill-opacity=".85"/><circle cx="82" cy="142" r="3.6" fill="#fff" fill-opacity=".85"/><circle cx="108" cy="142" r="3.6" fill="#fff" fill-opacity=".85"/><circle cx="134" cy="142" r="3.6" fill="#fff" fill-opacity=".85"/><circle cx="160" cy="142" r="3.6" fill="#fff" fill-opacity=".85"/><circle cx="186" cy="142" r="3.6" fill="#fff" fill-opacity=".85"/><circle cx="212" cy="142" r="3.6" fill="#fff" fill-opacity=".85"/><circle cx="238" cy="142" r="3.6" fill="#fff" fill-opacity=".85"/><circle cx="264" cy="142" r="3.6" fill="#fff" fill-opacity=".85"/><rect x="76" y="166" width="21" height="20" rx="4" fill="#FFC531" fill-opacity="0.9"/><rect x="100" y="166" width="21" height="20" rx="4" fill="#9B8FC4" fill-opacity="0.9"/><rect x="124" y="166" width="21" height="20" rx="4" fill="#9B8FC4" fill-opacity="0.9"/><rect x="148" y="166" width="21" height="20" rx="4" fill="#9B8FC4" fill-opacity="0.45"/><rect x="172" y="166" width="21" height="20" rx="4" fill="#9B8FC4" fill-opacity="0.9"/><rect x="196" y="166" width="21" height="20" rx="4" fill="#9B8FC4" fill-opacity="0.9"/><rect x="220" y="166" width="21" height="20" rx="4" fill="#FFC531" fill-opacity="0.9"/><circle cx="173" cy="84" r="8" fill="#FFC531"/>
</svg>
