<svg xmlns="http://www.w3.org/2000/svg" viewBox="0 0 320 200" width="320" height="200">
  <defs>
    <radialGradient id="g" cx="72%" cy="22%" r="85%">
      <stop offset="0" stop-color="#9AAE5E" stop-opacity=".55"/>
      <stop offset=".55" stop-color="#9AAE5E" stop-opacity=".14"/>
      <stop offset="1" stop-color="#0A0E11" stop-opacity="0"/>
    </radialGradient>
    <pattern id="p" width="16" height="16" patternUnits="userSpaceOnUse">
      <path d="M16 0H0V16" fill="none" stroke="#fff" stroke-opacity=".05" stroke-width="1"/>
    </pattern>
  </defs>
  <rect width="320" height="200" fill="#0C1114"/>
  <rect width="320" height="200" fill="url(#g)"/>
  <rect width="320" height="200" fill="url(#p)"/>
  <path d="M160 104 L160.0 26.0 A78 78 0 0 1 199.0 36.5 Z" fill="#FFC531" fill-opacity="0.95" stroke="#0C1114" stroke-width="2"/><path d="M160 104 L199.0 36.5 A78 78 0 0 1 227.5 65.0 Z" fill="#fff" fill-opacity="0.16" stroke="#0C1114" stroke-width="2"/><path d="M160 104 L227.5 65.0 A78 78 0 0 1 238.0 104.0 Z" fill="#9AAE5E" fill-opacity="0.95" stroke="#0C1114" stroke-width="2"/><path d="M160 104 L238.0 104.0 A78 78 0 0 1 227.5 143.0 Z" fill="#fff" fill-opacity="0.16" stroke="#0C1114" stroke-width="2"/><path d="M160 104 L227.5 143.0 A78 78 0 0 1 199.0 171.5 Z" fill="#FFC531" fill-opacity="0.95" stroke="#0C1114" stroke-width="2"/><path d="M160 104 L199.0 171.5 A78 78 0 0 1 160.0 182.0 Z" fill="#fff" fill-opacity="0.16" stroke="#0C1114" stroke-width="2"/><path d="M160 104 L160.0 182.0 A78 78 0 0 1 121.0 171.5 Z" fill="#9AAE5E" fill-opacity="0.95" stroke="#0C1114" stroke-width="2"/><path d="M160 104 L121.0 171.5 A78 78 0 0 1 92.5 143.0 Z" fill="#fff" fill-opacity="0.16" stroke="#0C1114" stroke-width="2"/><path d="M160 104 L92.5 143.0 A78 78 0 0 1 82.0 104.0 Z" fill="#FFC531" fill-opacity="0.95" stroke="#0C1114" stroke-width="2"/><path d="M160 104 L82.0 104.0 A78 78 0 0 1 92.5 65.0 Z" fill="#fff" fill-opacity="0.16" stroke="#0C1114" stroke-width="2"/><path d="M160 104 L92.5 65.0 A78 78 0 0 1 121.0 36.5 Z" fill="#9AAE5E" fill-opacity="0.95" stroke="#0C1114" stroke-width="2"/><path d="M160 104 L121.0 36.5 A78 78 0 0 1 160.0 26.0 Z" fill="#fff" fill-opacity="0.16" stroke="#0C1114" stroke-width="2"/><circle cx="160" cy="104" r="16" fill="#0C1114" stroke="#fff" stroke-opacity=".6" stroke-width="2"/><path d="M160 14 l-10 -10 h20 z" fill="#fff"/>
</svg>
